<svg width="16" height="16" viewBox="0 0 16 16" fill="none" xmlns="http://www.w3.org/2000/svg">
<path d="M4.23612 2.38299C3.28243 2.48958 2.51905 3.24228 2.40871 4.18571C2.1123 6.72 2.1123 9.2802 2.40871 11.8145C2.51905 12.7579 3.28243 13.5106 4.23612 13.6172C6.71681 13.8945 9.28316 13.8945 11.7639 13.6172C12.7175 13.5106 13.4809 12.7579 13.5913 11.8145C13.8042 9.99353 13.8642 8.1592 13.7711 6.33071C13.7687 6.28349 13.7863 6.23743 13.8198 6.204L14.6854 5.33835C14.7856 5.23816 14.9568 5.30081 14.9675 5.44211C15.1308 7.61287 15.0859 9.79538 14.8328 11.9597C14.6538 13.4905 13.4247 14.6894 11.9027 14.8595C9.32973 15.147 6.67024 15.147 4.09728 14.8595C2.57529 14.6894 1.34621 13.4905 1.16717 11.9597C0.859478 9.32893 0.859478 6.67127 1.16717 4.0405C1.34621 2.5097 2.57529 1.31083 4.09728 1.14072C6.67024 0.853157 9.32973 0.853157 11.9027 1.14072C12.4387 1.20063 12.9385 1.38816 13.3688 1.67285C13.4534 1.72888 13.4618 1.84791 13.39 1.9197L12.721 2.58877C12.6662 2.6435 12.5813 2.6527 12.5131 2.61615C12.2853 2.49407 12.0321 2.41297 11.7639 2.38299C9.28317 2.10574 6.71681 2.10574 4.23612 2.38299Z" fill="#0091FF"/>
<path d="M15.5253 3.02537C15.7693 2.7813 15.7693 2.38557 15.5253 2.14149C15.2812 1.89741 14.8854 1.89741 14.6414 2.14149L7.58331 9.19955L5.52525 7.14149C5.28117 6.89741 4.88544 6.89741 4.64137 7.14149C4.39729 7.38557 4.39729 7.7813 4.64137 8.02537L7.14137 10.5254C7.38544 10.7695 7.78117 10.7695 8.02525 10.5254L15.5253 3.02537Z" fill="#0091FF"/>
</svg>
