<svg width="18" height="18" viewBox="0 0 18 18" fill="none" xmlns="http://www.w3.org/2000/svg">
<path d="M4.31673 0.768758C7.40429 0.423679 10.5957 0.423679 13.6832 0.768758C14.8424 0.898317 15.8601 1.52519 16.5038 2.43559L8.5 10.4393L6.03033 7.96968C5.73744 7.67678 5.26256 7.67678 4.96967 7.96968C4.67678 8.26257 4.67678 8.73744 4.96967 9.03034L7.96967 12.0303C8.26256 12.3232 8.73744 12.3232 9.03033 12.0303L17.1458 3.9149C17.1682 4.02447 17.1862 4.13573 17.1994 4.24849C17.5686 7.40541 17.5686 10.5946 17.1994 13.7515C16.9845 15.5885 15.5096 17.0271 13.6832 17.2313C10.5957 17.5763 7.40429 17.5763 4.31673 17.2313C2.49035 17.0271 1.01545 15.5885 0.800605 13.7515C0.431374 10.5946 0.431374 7.40541 0.800605 4.24849C1.01545 2.41153 2.49035 0.972883 4.31673 0.768758Z" fill="#0091FF"/>
</svg>
