<svg width="24" height="25" viewBox="0 0 24 25" fill="none" xmlns="http://www.w3.org/2000/svg">
<path d="M16.6492 0.0998535C16.8349 0.0998535 17.0129 0.173603 17.1442 0.304879L21.104 4.26468C21.3774 4.53804 21.3774 4.98126 21.104 5.25463L8.23467 18.124C8.14672 18.2119 8.03693 18.2748 7.9166 18.3063L2.5568 19.7063C2.31636 19.7691 2.06064 19.6997 1.88492 19.524C1.7092 19.3482 1.63981 19.0925 1.70262 18.8521L3.10262 13.4923C3.13405 13.372 3.19697 13.2622 3.28492 13.1742L16.1543 0.304879C16.2855 0.173603 16.4636 0.0998535 16.6492 0.0998535Z" fill="white"/>
<path d="M1.8 22.1499C1.2201 22.1499 0.75 22.62 0.75 23.1999C0.75 23.7798 1.2201 24.2499 1.8 24.2499H22.8C23.3799 24.2499 23.85 23.7798 23.85 23.1999C23.85 22.62 23.3799 22.1499 22.8 22.1499H1.8Z" fill="white"/>
</svg>
