<svg width="20" height="20" viewBox="0 0 20 20" fill="none" xmlns="http://www.w3.org/2000/svg">
<path fill-rule="evenodd" clip-rule="evenodd" d="M12.6141 2.89143C12.4969 2.77422 12.338 2.70837 12.1722 2.70837C12.0064 2.70837 11.8475 2.77422 11.7303 2.89143L4.06994 10.5518C3.99142 10.6303 3.93524 10.7283 3.90717 10.8357L3.07384 14.0261C3.01776 14.2408 3.07971 14.4691 3.23661 14.626C3.3935 14.7829 3.62182 14.8448 3.8365 14.7888L7.02686 13.9554C7.1343 13.9274 7.23233 13.8712 7.31085 13.7927L14.9712 6.13234C15.2152 5.88826 15.2152 5.49253 14.9712 5.24846L12.6141 2.89143ZM5.07374 11.3157L12.1722 4.21726L13.6453 5.6904L6.54688 12.7889L4.5529 13.3097L5.07374 11.3157Z" fill="#7E8489"/>
<path d="M3.33337 16.0417C2.9882 16.0417 2.70837 16.3215 2.70837 16.6667C2.70837 17.0119 2.9882 17.2917 3.33337 17.2917H15.8334C16.1786 17.2917 16.4584 17.0119 16.4584 16.6667C16.4584 16.3215 16.1786 16.0417 15.8334 16.0417H3.33337Z" fill="#7E8489"/>
</svg>
