<svg width="32" height="32" viewBox="0 0 32 32" fill="none" xmlns="http://www.w3.org/2000/svg">
<circle cx="16" cy="16" r="16" fill="#E0E0E0"/>
<path d="M15 7.75C12.9289 7.75 11.25 9.42893 11.25 11.5C11.25 13.5711 12.9289 15.25 15 15.25C17.0711 15.25 18.75 13.5711 18.75 11.5C18.75 9.42893 17.0711 7.75 15 7.75Z" fill="#535353"/>
<path d="M11 17.25C8.92893 17.25 7.25 18.9289 7.25 21V22.1883C7.25 22.9415 7.79588 23.5837 8.53927 23.7051C12.8181 24.4037 17.1819 24.4037 21.4607 23.7051C22.2041 23.5837 22.75 22.9415 22.75 22.1883V21C22.75 18.9289 21.0711 17.25 19 17.25H18.6591C18.4746 17.25 18.2913 17.2792 18.1159 17.3364L17.2504 17.6191C15.7881 18.0965 14.2119 18.0965 12.7496 17.6191L11.8841 17.3364C11.7087 17.2792 11.5254 17.25 11.3409 17.25H11Z" fill="#535353"/>
<path d="M23.5 10.25C23.9142 10.25 24.25 10.5858 24.25 11V12.75H26C26.4142 12.75 26.75 13.0858 26.75 13.5C26.75 13.9142 26.4142 14.25 26 14.25H24.25V16C24.25 16.4142 23.9142 16.75 23.5 16.75C23.0858 16.75 22.75 16.4142 22.75 16V14.25H21C20.5858 14.25 20.25 13.9142 20.25 13.5C20.25 13.0858 20.5858 12.75 21 12.75H22.75V11C22.75 10.5858 23.0858 10.25 23.5 10.25Z" fill="#535353"/>
</svg>
