<svg width="16" height="16" viewBox="0 0 16 16" fill="none" xmlns="http://www.w3.org/2000/svg">
<path d="M5.05806 5.05814C5.30214 4.81406 5.69786 4.81406 5.94194 5.05814L8.00001 7.11621L10.0581 5.05815C10.3021 4.81407 10.6979 4.81407 10.9419 5.05815C11.186 5.30223 11.186 5.69796 10.9419 5.94203L8.88389 8.00009L10.9419 10.0581C11.186 10.3022 11.186 10.6979 10.9419 10.942C10.6979 11.1861 10.3021 11.1861 10.0581 10.942L8.00001 8.88397L5.94195 10.942C5.69787 11.1861 5.30214 11.1861 5.05806 10.942C4.81399 10.698 4.81399 10.3022 5.05806 10.0581L7.11612 8.00009L5.05806 5.94203C4.81398 5.69795 4.81398 5.30222 5.05806 5.05814Z" fill="#535353"/>
<path fill-rule="evenodd" clip-rule="evenodd" d="M4.09728 1.14072C6.67024 0.853157 9.32973 0.853157 11.9027 1.14072C13.4247 1.31083 14.6538 2.5097 14.8328 4.0405C15.1405 6.67127 15.1405 9.32893 14.8328 11.9597C14.6538 13.4905 13.4247 14.6894 11.9027 14.8595C9.32973 15.147 6.67024 15.147 4.09728 14.8595C2.57529 14.6894 1.34621 13.4905 1.16717 11.9597C0.859478 9.32893 0.859478 6.67127 1.16717 4.0405C1.34621 2.5097 2.57529 1.31083 4.09728 1.14072ZM11.7639 2.38299C9.28316 2.10574 6.71681 2.10574 4.23612 2.38299C3.28243 2.48958 2.51905 3.24228 2.40871 4.18571C2.1123 6.72 2.1123 9.2802 2.40871 11.8145C2.51905 12.7579 3.28243 13.5106 4.23612 13.6172C6.71681 13.8945 9.28316 13.8945 11.7639 13.6172C12.7175 13.5106 13.4809 12.7579 13.5913 11.8145C13.8877 9.2802 13.8877 6.72 13.5913 4.18571C13.4809 3.24228 12.7175 2.48958 11.7639 2.38299Z" fill="#535353"/>
</svg>
